{
  "accessors": [
    {
      "bufferView": 2,
      "componentType": 5126,
      "count": 51354,
      "max": [
        2.7191379070281982,
        1.1805380582809448,
        2.377434015274048
      ],
      "min": [
        -2.8258790969848633,
        -0.8029599785804749,
        -0.03394399955868721
      ],
      "type": "VEC3"
    },
    {
      "bufferView": 2,
      "byteOffset": 616248,
      "componentType": 5126,
      "count": 51354,
      "max": [
        0.9999716281890869,
        0.999982476234436,
        0.9999930262565613
      ],
      "min": [
        -0.9995888471603394,
        -0.999983012676239,
        -0.9999952912330627
      ],
      "type": "VEC3"
    },
    {
      "bufferView": 1,
      "componentType": 5126,
      "count": 51354,
      "max": [
        0.9919080138206482,
        0.9999390244483948
      ],
      "min": [
        0.00011899999663000926,
        5.0999999075429514e-05
      ],
      "type": "VEC2"
    },
    {
      "bufferView": 0,
      "componentType": 5125,
      "count": 300000,
      "type": "SCALAR"
    }
  ],
  "asset": {
    "extras": {
      "author": "3DScanX (https://sketchfab.com/3dscanx)",
      "license": "CC-BY-4.0 (http://creativecommons.org/licenses/by/4.0/)",
      "source": "https://sketchfab.com/3d-models/nike-shoe-01-low-definition-quality-3593098780f14700ab85c4969205b0ed",
      "title": "Nike Shoe 01 - Low Definition Quality"
    },
    "generator": "Sketchfab-15.70.0",
    "version": "2.0"
  },
  "bufferViews": [
    {
      "buffer": 0,
      "byteLength": 1200000,
      "name": "floatBufferViews",
      "target": 34963
    },
    {
      "buffer": 0,
      "byteLength": 410832,
      "byteOffset": 1200000,
      "byteStride": 8,
      "name": "floatBufferViews",
      "target": 34962
    },
    {
      "buffer": 0,
      "byteLength": 1232496,
      "byteOffset": 1610832,
      "byteStride": 12,
      "name": "floatBufferViews",
      "target": 34962
    }
  ],
  "buffers": [
    {
      "byteLength": 2843328,
      "uri": "shoe2.bin"
    }
  ],
  "extensionsUsed": [
    "KHR_materials_specular"
  ],
  "images": [
    {
      "uri": "textures/NikeShoe_01_MS_Cleaned_Positioned_Final_2_baseColor.jpeg"
    }
  ],
  "materials": [
    {
      "doubleSided": true,
      "extensions": {
        "KHR_materials_specular": {
          "specularColorFactor": [
            1.0,
            1.0,
            1.0
          ],
          "specularFactor": 0.0
        }
      },
      "name": "NikeShoe_01_MS_Cleaned_Positioned_Final_2",
      "pbrMetallicRoughness": {
        "baseColorTexture": {
          "index": 0
        },
        "metallicFactor": 0.0
      }
    }
  ],
  "meshes": [
    {
      "name": "Object_0",
      "primitives": [
        {
          "attributes": {
            "NORMAL": 1,
            "POSITION": 0,
            "TEXCOORD_0": 2
          },
          "indices": 3,
          "material": 0,
          "mode": 4
        }
      ]
    }
  ],
  "nodes": [
    {
      "children": [
        1
      ],
      "matrix": [
        0.05378779023885727,
        8.953013847449027e-34,
        -3.2935524011763884e-18,
        0.0,
        -3.2935524011763884e-18,
        2.0593024865578647e-17,
        -0.05378779023885727,
        0.0,
        3.656577708595497e-34,
        0.05378779023885727,
        2.0593024865578647e-17,
        0.0,
        0.0,
        0.0,
        0.0,
        1.0
      ],
      "name": "Sketchfab_model"
    },
    {
      "children": [
        2
      ],
      "name": "NikeShoe_01_MS_Cleaned_Positioned_Final_2.obj.cleaner.materialmerger.gles"
    },
    {
      "mesh": 0,
      "name": "Object_2"
    }
  ],
  "samplers": [
    {
      "magFilter": 9729,
      "minFilter": 9987,
      "wrapS": 10497,
      "wrapT": 10497
    }
  ],
  "scene": 0,
  "scenes": [
    {
      "name": "Sketchfab_Scene",
      "nodes": [
        0
      ]
    }
  ],
  "textures": [
    {
      "sampler": 0,
      "source": 0
    }
  ]
}
